<svg xmlns="http://www.w3.org/2000/svg" viewBox="0 0 200 200" width="200" height="200">
  <defs>
    <radialGradient id="glow" cx="50%" cy="50%" r="50%">
      <stop offset="0%" stop-color="#80cc20" stop-opacity="0.3"/>
      <stop offset="100%" stop-color="#3d87cc" stop-opacity="0"/>
    </radialGradient>
  </defs>
  <g stroke="#3d87cc" stroke-width="2" fill="none">
    <path d="M100,20 C140,20 160,60 160,100 C160,140 140,180 100,180 C60,180 40,140 40,100 C40,60 60,20 100,20"/>
    <path d="M100,40 C130,40 150,60 150,100 C150,140 130,160 100,160 C70,160 50,140 50,100 C50,60 70,40 100,40"/>
    <path d="M100,60 C125,60 140,75 140,100 C140,125 125,140 100,140 C75,140 60,125 60,100 C60,75 75,60 100,60"/>
  </g>
  <text x="100" y="190" text-anchor="middle" font-family="Inter, sans-serif" font-size="16" fill="#1e1e1e" font-weight="600">Orcheeos</text>
</svg>